<svg xmlns="http://www.w3.org/2000/svg" width="53.813" height="41" viewBox="0 0 53.813 41">
  <path id="discord-brands" d="M71.625,35.462a.137.137,0,0,0-.07-.064A44.392,44.392,0,0,0,60.6,32a.166.166,0,0,0-.176.083,30.884,30.884,0,0,0-1.364,2.8,40.986,40.986,0,0,0-12.3,0,28.329,28.329,0,0,0-1.385-2.8A.173.173,0,0,0,45.2,32a44.266,44.266,0,0,0-10.954,3.4.157.157,0,0,0-.072.062,45.384,45.384,0,0,0-7.95,30.617.185.185,0,0,0,.07.126,44.63,44.63,0,0,0,13.437,6.79.174.174,0,0,0,.189-.062,31.867,31.867,0,0,0,2.749-4.47.17.17,0,0,0-.093-.237,29.393,29.393,0,0,1-4.2-2,.173.173,0,0,1-.017-.286c.282-.211.564-.431.834-.653a.166.166,0,0,1,.174-.023,31.835,31.835,0,0,0,27.044,0,.166.166,0,0,1,.176.021c.269.222.552.444.836.655a.172.172,0,0,1-.015.286,27.584,27.584,0,0,1-4.2,2,.172.172,0,0,0-.092.239,35.789,35.789,0,0,0,2.747,4.467.171.171,0,0,0,.189.064A44.482,44.482,0,0,0,79.511,66.2a.172.172,0,0,0,.07-.124A45.084,45.084,0,0,0,71.625,35.462Zm-27.642,24.5c-2.651,0-4.836-2.433-4.836-5.421a5.143,5.143,0,0,1,4.836-5.422,5.114,5.114,0,0,1,4.836,5.421A5.143,5.143,0,0,1,43.983,59.965Zm17.881,0c-2.651,0-4.836-2.433-4.836-5.421a4.868,4.868,0,1,1,9.672,0C66.7,57.532,64.578,59.965,61.863,59.965Z" transform="translate(-26 -31.999)" fill="#fff"/>
</svg>
