<svg xmlns="http://www.w3.org/2000/svg" width="41" height="41" viewBox="0 0 41 41">
  <path id="envelope-open-text-solid" d="M14.094,17.294H26.906a1.281,1.281,0,0,0,1.281-1.281V14.731a1.281,1.281,0,0,0-1.281-1.281H14.094a1.281,1.281,0,0,0-1.281,1.281v1.281A1.281,1.281,0,0,0,14.094,17.294ZM12.812,23.7a1.281,1.281,0,0,0,1.281,1.281H26.906A1.281,1.281,0,0,0,28.187,23.7V22.419a1.281,1.281,0,0,0-1.281-1.281H14.094a1.281,1.281,0,0,0-1.281,1.281ZM20.5,33.4a6.4,6.4,0,0,1-3.752-1.216L0,20.085V37.153A3.844,3.844,0,0,0,3.844,41H37.156A3.844,3.844,0,0,0,41,37.153V20.085l-16.747,12.1A6.4,6.4,0,0,1,20.5,33.4ZM39.527,13.046c-.709-.556-1.381-1.079-2.371-1.827V7.685a3.844,3.844,0,0,0-3.844-3.844H27.1l-.724-.525C25.032,2.333,22.358-.031,20.5,0c-1.858-.028-4.532,2.336-5.878,3.318l-.724.525H7.687A3.844,3.844,0,0,0,3.844,7.685v3.535c-.991.747-1.662,1.271-2.371,1.827A3.843,3.843,0,0,0,0,16.07v.853l7.687,5.553V7.685H33.312V22.477L41,16.923V16.07a3.843,3.843,0,0,0-1.473-3.025Z" transform="translate(0 0.003)" fill="#fff"/>
</svg>
