<svg xmlns="http://www.w3.org/2000/svg" width="41" height="41" viewBox="0 0 41 41">
  <path id="github-brands" d="M13.714,41.013c0,.17-.19.305-.43.305-.273.025-.463-.11-.463-.305,0-.17.19-.305.43-.305C13.5,40.682,13.714,40.818,13.714,41.013Zm-2.571-.382c-.058.17.107.365.355.415a.383.383,0,0,0,.513-.17c.05-.17-.107-.365-.355-.441a.42.42,0,0,0-.512.195Zm3.654-.144c-.24.059-.405.22-.38.415.025.17.24.28.488.22s.405-.22.38-.39S15.036,40.462,14.8,40.488ZM20.235,8C8.77,8,0,16.927,0,28.686A21.224,21.224,0,0,0,14.011,48.965c1.058.195,1.43-.475,1.43-1.026,0-.526-.025-3.425-.025-5.205,0,0-5.786,1.272-7-2.526,0,0-.942-2.467-2.3-3.1,0,0-1.893-1.331.132-1.306A4.346,4.346,0,0,1,9.44,37.987c1.81,3.272,4.844,2.331,6.026,1.772A4.759,4.759,0,0,1,16.789,36.9c-4.621-.526-9.283-1.212-9.283-9.368A6.51,6.51,0,0,1,9.456,22.54a8.2,8.2,0,0,1,.215-5.757c1.728-.551,5.7,2.289,5.7,2.289a19.058,19.058,0,0,1,10.382,0s3.976-2.849,5.7-2.289a8.2,8.2,0,0,1,.215,5.757,6.667,6.667,0,0,1,2.133,4.994c0,8.181-4.869,8.834-9.49,9.368a5.083,5.083,0,0,1,1.405,3.934c0,2.857-.025,6.392-.025,7.088,0,.551.38,1.221,1.43,1.026C35.4,46.134,41,38.088,41,28.686A20.516,20.516,0,0,0,20.235,8ZM8.035,37.24c-.107.085-.083.28.058.441.132.136.322.195.43.085.107-.085.083-.28-.058-.441C8.332,37.19,8.142,37.13,8.035,37.24Zm-.893-.687c-.058.11.025.246.19.331a.242.242,0,0,0,.355-.059c.058-.11-.025-.246-.19-.331C7.332,36.444,7.2,36.469,7.142,36.554ZM9.82,39.572c-.132.11-.083.365.107.526.19.195.43.22.537.085.107-.11.058-.365-.107-.526C10.176,39.462,9.928,39.436,9.82,39.572Zm-.942-1.246c-.132.085-.132.305,0,.5s.355.28.463.195a.394.394,0,0,0,0-.526c-.116-.195-.331-.28-.463-.17Z" transform="translate(0 -8)" fill="#fff"/>
</svg>
