<svg xmlns="http://www.w3.org/2000/svg" width="41" height="41" viewBox="0 0 41 41">
  <path id="instagram-brands" d="M20.43,41.813a10.512,10.512,0,1,0,10.51,10.512A10.494,10.494,0,0,0,20.43,41.813Zm0,17.346a6.834,6.834,0,1,1,6.833-6.834,6.846,6.846,0,0,1-6.833,6.834ZM33.82,41.383a2.451,2.451,0,1,1-2.451-2.452A2.446,2.446,0,0,1,33.82,41.383Zm6.961,2.488c-.155-3.284-.906-6.194-3.311-8.591s-5.305-3.147-8.589-3.312c-3.384-.192-13.528-.192-16.912,0-3.275.156-6.183.906-8.589,3.3S.234,40.578.069,43.862c-.192,3.385-.192,13.531,0,16.916.155,3.284.906,6.194,3.311,8.591s5.305,3.147,8.589,3.312c3.384.192,13.528.192,16.912,0,3.284-.156,6.192-.906,8.589-3.312s3.146-5.306,3.311-8.591C40.973,57.393,40.973,47.257,40.781,43.872ZM36.409,64.41a6.918,6.918,0,0,1-3.9,3.9c-2.7,1.07-9.1.823-12.083.823s-9.394.238-12.083-.823a6.918,6.918,0,0,1-3.9-3.9c-1.07-2.7-.823-9.1-.823-12.085s-.238-9.4.823-12.085a6.918,6.918,0,0,1,3.9-3.9c2.7-1.07,9.1-.823,12.083-.823s9.394-.238,12.083.823a6.918,6.918,0,0,1,3.9,3.9c1.07,2.7.823,9.1.823,12.085S37.479,61.721,36.409,64.41Z" transform="translate(0.075 -31.825)" fill="#fff"/>
</svg>
