<svg xmlns="http://www.w3.org/2000/svg" width="50.481" height="41" viewBox="0 0 50.481 41">
  <path id="twitter-brands" d="M45.292,58.3c.032.448.032.9.032,1.345,0,13.677-10.41,29.437-29.437,29.437A29.237,29.237,0,0,1,0,84.438a21.4,21.4,0,0,0,2.5.128,20.72,20.72,0,0,0,12.845-4.42A10.364,10.364,0,0,1,5.669,72.97a13.048,13.048,0,0,0,1.954.16,10.942,10.942,0,0,0,2.723-.352,10.347,10.347,0,0,1-8.3-10.154V62.5a10.42,10.42,0,0,0,4.677,1.313,10.362,10.362,0,0,1-3.2-13.838A29.408,29.408,0,0,0,24.856,60.8a11.679,11.679,0,0,1-.256-2.37,10.356,10.356,0,0,1,17.905-7.079,20.37,20.37,0,0,0,6.566-2.5,10.318,10.318,0,0,1-4.548,5.7,20.741,20.741,0,0,0,5.958-1.6A22.24,22.24,0,0,1,45.292,58.3Z" transform="translate(0 -48.082)" fill="#fff"/>
</svg>
